<?xml version="1.0" encoding="UTF-8" standalone="no"?>
<!DOCTYPE svg PUBLIC "-//W3C//DTD SVG 1.0//EN" "http://www.w3.org/TR/2001/PR-SVG-20010719/DTD/svg10.dtd">
<svg width="19cm" height="15cm" viewBox="335 192 379 289" xmlns="http://www.w3.org/2000/svg" xmlns:xlink="http://www.w3.org/1999/xlink">
  <g>
    <ellipse style="fill: #ffffff" cx="386" cy="392" rx="50" ry="50"/>
    <ellipse style="fill: none; fill-opacity:0; stroke-width: 2; stroke: #1e90ff" cx="386" cy="392" rx="50" ry="50"/>
  </g>
  <g>
    <ellipse style="fill: #ffffff" cx="529.9" cy="430.5" rx="50" ry="50"/>
    <ellipse style="fill: none; fill-opacity:0; stroke-width: 2; stroke: #1e90ff" cx="529.9" cy="430.5" rx="50" ry="50"/>
  </g>
  <g>
    <ellipse style="fill: #ffffff" cx="662.8" cy="389" rx="50" ry="50"/>
    <ellipse style="fill: none; fill-opacity:0; stroke-width: 2; stroke: #1e90ff" cx="662.8" cy="389" rx="50" ry="50"/>
  </g>
  <g>
    <rect style="fill: #ffffff" x="443" y="194" width="180" height="81"/>
    <rect style="fill: none; fill-opacity:0; stroke-width: 2; stroke: #7f7f7f" x="443" y="194" width="180" height="81"/>
  </g>
  <image x="466" y="204" width="130.635" height="58" xlink:href="file:///home/cnp/School/113/revolt/img/github_logo.png"/>
  <g>
    <line style="fill: none; fill-opacity:0; stroke-width: 2; stroke: #7f7f7f" x1="427.442" y1="347.598" x2="487.624" y2="283.117"/>
    <polygon style="fill: #7f7f7f" points="422.324,353.081 425.492,342.359 427.442,347.598 432.803,349.182 "/>
    <polygon style="fill: none; fill-opacity:0; stroke-width: 2; stroke: #7f7f7f" points="422.324,353.081 425.492,342.359 427.442,347.598 432.803,349.182 "/>
    <polygon style="fill: #7f7f7f" points="492.741,277.634 489.574,288.356 487.624,283.117 482.263,281.533 "/>
    <polygon style="fill: none; fill-opacity:0; stroke-width: 2; stroke: #7f7f7f" points="492.741,277.634 489.574,288.356 487.624,283.117 482.263,281.533 "/>
  </g>
  <g>
    <line style="fill: none; fill-opacity:0; stroke-width: 2; stroke: #7f7f7f" x1="530.86" y1="369.803" x2="532.19" y2="285.734"/>
    <polygon style="fill: #7f7f7f" points="530.741,377.302 525.9,367.224 530.86,369.803 535.899,367.383 "/>
    <polygon style="fill: none; fill-opacity:0; stroke-width: 2; stroke: #7f7f7f" points="530.741,377.302 525.9,367.224 530.86,369.803 535.899,367.383 "/>
    <polygon style="fill: #7f7f7f" points="532.308,278.235 537.15,288.313 532.19,285.734 527.151,288.155 "/>
    <polygon style="fill: none; fill-opacity:0; stroke-width: 2; stroke: #7f7f7f" points="532.308,278.235 537.15,288.313 532.19,285.734 527.151,288.155 "/>
  </g>
  <g>
    <line style="fill: none; fill-opacity:0; stroke-width: 2; stroke: #7f7f7f" x1="623.731" y1="342.496" x2="574.129" y2="283.456"/>
    <polygon style="fill: #7f7f7f" points="628.555,348.239 618.294,343.798 623.731,342.496 625.951,337.366 "/>
    <polygon style="fill: none; fill-opacity:0; stroke-width: 2; stroke: #7f7f7f" points="628.555,348.239 618.294,343.798 623.731,342.496 625.951,337.366 "/>
    <polygon style="fill: #7f7f7f" points="569.305,277.713 579.565,282.153 574.129,283.456 571.909,288.586 "/>
    <polygon style="fill: none; fill-opacity:0; stroke-width: 2; stroke: #7f7f7f" points="569.305,277.713 579.565,282.153 574.129,283.456 571.909,288.586 "/>
  </g>
  <text font-size="12.7998" style="fill: #000000;text-anchor:start;font-family:sans-serif;font-style:normal;font-weight:normal" x="355" y="398">
    <tspan x="355" y="398">Developer</tspan>
  </text>
  <text font-size="12.7998" style="fill: #000000;text-anchor:start;font-family:sans-serif;font-style:normal;font-weight:normal" x="498.9" y="437.4">
    <tspan x="498.9" y="437.4">Developer</tspan>
  </text>
  <text font-size="12.7998" style="fill: #000000;text-anchor:start;font-family:sans-serif;font-style:normal;font-weight:normal" x="632.8" y="394.9">
    <tspan x="632.8" y="394.9">Developer</tspan>
  </text>
</svg>
