<?xml version="1.0" encoding="UTF-8" standalone="no"?>
<!DOCTYPE svg PUBLIC "-//W3C//DTD SVG 1.0//EN" "http://www.w3.org/TR/2001/PR-SVG-20010719/DTD/svg10.dtd">
<svg width="27cm" height="27cm" viewBox="102 140 539 528" xmlns="http://www.w3.org/2000/svg" xmlns:xlink="http://www.w3.org/1999/xlink">
  <g>
    <ellipse style="fill: #ffffff" cx="376.5" cy="414.5" rx="120.5" ry="120.5"/>
    <ellipse style="fill: none; fill-opacity:0; stroke-width: 2; stroke: #1e90ff" cx="376.5" cy="414.5" rx="120.5" ry="120.5"/>
  </g>
  <g>
    <ellipse style="fill: #ffffff" cx="154.189" cy="461.27" rx="51" ry="51"/>
    <ellipse style="fill: none; fill-opacity:0; stroke-width: 2; stroke: #1e90ff" cx="154.189" cy="461.27" rx="51" ry="51"/>
  </g>
  <g>
    <ellipse style="fill: #ffffff" cx="366.013" cy="192.965" rx="51" ry="51"/>
    <ellipse style="fill: none; fill-opacity:0; stroke-width: 2; stroke: #1e90ff" cx="366.013" cy="192.965" rx="51" ry="51"/>
  </g>
  <text font-size="12.7998" style="fill: #000000;text-anchor:start;font-family:sans-serif;font-style:normal;font-weight:normal" x="331.051" y="189.405">
    <tspan x="331.051" y="189.405">Handling</tspan>
    <tspan x="331.051" y="205.405">game logic</tspan>
  </text>
  <g>
    <ellipse style="fill: #ffffff" cx="549.635" cy="271.127" rx="51" ry="51"/>
    <ellipse style="fill: none; fill-opacity:0; stroke-width: 2; stroke: #1e90ff" cx="549.635" cy="271.127" rx="51" ry="51"/>
  </g>
  <text font-size="12.7998" style="fill: #000000;text-anchor:start;font-family:sans-serif;font-style:normal;font-weight:normal" x="126.497" y="457.1">
    <tspan x="126.497" y="457.1">Loading</tspan>
    <tspan x="126.497" y="473.1">resources</tspan>
  </text>
  <text font-size="12.7998" style="fill: #000000;text-anchor:start;font-family:sans-serif;font-style:normal;font-weight:normal" x="519.985" y="261.837">
    <tspan x="519.985" y="261.837">Handling</tspan>
    <tspan x="519.985" y="277.837">entities</tspan>
  </text>
  <line style="fill: none; fill-opacity:0; stroke-width: 2; stroke: #7f7f7f" x1="509.58" y1="304.297" x2="470.042" y2="337.038"/>
  <line style="fill: none; fill-opacity:0; stroke-width: 2; stroke: #7f7f7f" x1="368.472" y1="244.901" x2="370.76" y2="293.24"/>
  <line style="fill: none; fill-opacity:0; stroke-width: 2; stroke: #7f7f7f" x1="205.079" y1="450.563" x2="257.603" y2="439.513"/>
  <g>
    <ellipse style="fill: #ffffff" cx="589.176" cy="464.234" rx="51" ry="51"/>
    <ellipse style="fill: none; fill-opacity:0; stroke-width: 2; stroke: #1e90ff" cx="589.176" cy="464.234" rx="51" ry="51"/>
  </g>
  <g>
    <ellipse style="fill: #ffffff" cx="479.976" cy="616.012" rx="51" ry="51"/>
    <ellipse style="fill: none; fill-opacity:0; stroke-width: 2; stroke: #1e90ff" cx="479.976" cy="616.012" rx="51" ry="51"/>
  </g>
  <g>
    <ellipse style="fill: #ffffff" cx="250.648" cy="605.809" rx="51" ry="51"/>
    <ellipse style="fill: none; fill-opacity:0; stroke-width: 2; stroke: #1e90ff" cx="250.648" cy="605.809" rx="51" ry="51"/>
  </g>
  <g>
    <ellipse style="fill: #ffffff" cx="185.813" cy="295.079" rx="51" ry="51"/>
    <ellipse style="fill: none; fill-opacity:0; stroke-width: 2; stroke: #1e90ff" cx="185.813" cy="295.079" rx="51" ry="51"/>
  </g>
  <line style="fill: none; fill-opacity:0; stroke-width: 2; stroke: #7f7f7f" x1="279.227" y1="562.367" x2="309.726" y2="516.005"/>
  <line style="fill: none; fill-opacity:0; stroke-width: 2; stroke: #7f7f7f" x1="229.877" y1="322.675" x2="273.615" y2="350.066"/>
  <line style="fill: none; fill-opacity:0; stroke-width: 2; stroke: #7f7f7f" x1="456.223" y1="569.754" x2="431.989" y2="522.562"/>
  <line style="fill: none; fill-opacity:0; stroke-width: 2; stroke: #7f7f7f" x1="538.538" y1="452.392" x2="494.812" y2="442.167"/>
  <text font-size="12.7998" style="fill: #000000;text-anchor:start;font-family:sans-serif;font-style:normal;font-weight:normal" x="553.928" y="463.188">
    <tspan x="553.928" y="463.188">Drawing on</tspan>
    <tspan x="553.928" y="479.188">the context</tspan>
  </text>
  <text font-size="12.7998" style="fill: #000000;text-anchor:start;font-family:sans-serif;font-style:normal;font-weight:normal" x="448.928" y="614.188">
    <tspan x="448.928" y="614.188">Handling UI</tspan>
    <tspan x="448.928" y="630.188">inputs</tspan>
  </text>
  <text font-size="12.7998" style="fill: #000000;text-anchor:start;font-family:sans-serif;font-style:normal;font-weight:normal" x="159.199" y="292.965">
    <tspan x="159.199" y="292.965">Handling</tspan>
    <tspan x="159.199" y="308.965">collisions</tspan>
  </text>
  <text font-size="12.7998" style="fill: #000000;text-anchor:start;font-family:sans-serif;font-style:normal;font-weight:normal" x="221.648" y="588.81">
    <tspan x="221.648" y="588.81">Handling</tspan>
    <tspan x="221.648" y="604.81">different</tspan>
    <tspan x="221.648" y="620.81">drawing</tspan>
    <tspan x="221.648" y="636.81">layers</tspan>
  </text>
  <text font-size="28.2222" style="fill: #000000;text-anchor:start;font-family:sans-serif;font-style:normal;font-weight:700" x="326.5" y="432.5">
    <tspan x="326.5" y="432.5">Revolt</tspan>
  </text>
</svg>
